<?xml version="1.0" encoding="UTF-8" standalone="no"?>
<!-- Created with Inkscape (http://www.inkscape.org/) -->

<svg
   width="13.733101mm"
   height="10.583344mm"
   viewBox="0 0 13.733101 10.583344"
   version="1.1"
   id="svg5"
   xml:space="preserve"
   xmlns:inkscape="http://www.inkscape.org/namespaces/inkscape"
   xmlns:sodipodi="http://sodipodi.sourceforge.net/DTD/sodipodi-0.dtd"
   xmlns="http://www.w3.org/2000/svg"
   xmlns:svg="http://www.w3.org/2000/svg"><sodipodi:namedview
     id="namedview7"
     pagecolor="#ffffff"
     bordercolor="#000000"
     borderopacity="0.25"
     inkscape:showpageshadow="2"
     inkscape:pageopacity="0.0"
     inkscape:pagecheckerboard="0"
     inkscape:deskcolor="#d1d1d1"
     inkscape:document-units="mm"
     showgrid="false" /><defs
     id="defs2" /><g
     inkscape:label="Camada 1"
     inkscape:groupmode="layer"
     id="layer1"
     transform="translate(-112.7635,-94.058576)"><path
       style="fill:#1a1a1a;stroke-width:0.140134"
       d="m 112.807,102.79696 c -0.0341,-0.73221 -0.0377,-1.81671 -0.0405,-3.446124 l -0.003,-4.376968 c 0.004,-0.64343 0.31428,-0.90065 0.81781,-0.915291 h 6.04874 6.04874 c 0.66393,0.01243 0.80103,0.23862 0.81781,0.915291 l -0.003,4.376968 c -0.003,4.743324 -5.3e-4,4.725884 -0.79344,5.131304 -0.32532,0.16637 -7.07971,0.20175 -10.3853,0.1111 -2.03425,-0.0329 -2.41586,-0.0176 -2.50754,-1.79628 z m 9.14865,-2.01196 c 0.71869,-0.57806 1.38106,-1.051008 1.47192,-1.051008 0.0909,0 0.58209,0.334938 1.09159,0.744298 0.5095,0.40937 1.00519,0.79145 1.10153,0.84907 0.13796,0.0825 0.17517,-0.537 0.17517,-2.916369 0,-2.834303 -0.0173,-3.038479 -0.28027,-3.301413 -0.27093,-0.270927 -0.46711,-0.28027 -5.88562,-0.28027 -5.4185,0 -5.61469,0.0093 -5.88561,0.28027 -0.26248,0.262473 -0.28027,0.46711 -0.28027,3.223079 0,1.61854 0.0516,2.942813 0.1147,2.942813 0.0631,0 0.7725,-0.56561 1.5765,-1.25689 0.804,-0.691286 1.5564,-1.254844 1.67201,-1.252355 0.11561,0.0026 0.99845,0.691137 1.96187,1.530325 0.96342,0.83919 1.77599,1.52887 1.80573,1.53262 0.0297,0.004 0.64206,-0.46612 1.36075,-1.04417 z m -1.74971,-1.947231 c -0.90656,-0.502469 -0.9634,-1.943005 -0.10413,-2.639041 0.42929,-0.34774 1.49246,-0.326936 1.95678,0.03829 0.75944,0.59738 0.73893,1.956871 -0.0379,2.509994 -0.46192,0.328917 -1.3087,0.371262 -1.8148,0.09075 z"
       id="path356"
       sodipodi:nodetypes="cccccccccccssssssssssscscsssssss" /></g></svg>
